HIERARCHY
ROOT Hips
{
	OFFSET 0.00 86.18 0.00
	CHANNELS 6 Xposition Yposition Zposition Yrotation Xrotation Zrotation
	JOINT RightUpLeg
	{
		OFFSET -9.25 0.00 0.00
		CHANNELS 6 Xposition Yposition Zposition Yrotation Xrotation Zrotation
		JOINT RightLeg
		{
			OFFSET 0.00 -42.00 0.00
			CHANNELS 6 Xposition Yposition Zposition Yrotation Xrotation Zrotation
			JOINT RightFoot
			{
				OFFSET 0.00 -42.00 0.00
				CHANNELS 6 Xposition Yposition Zposition Yrotation Xrotation Zrotation
				End Site
				{
					OFFSET 0 -1.14 11.36
				}
			}
		}
	}
	JOINT LeftUpLeg
	{
		OFFSET 9.25 0.00 0.00
		CHANNELS 6 Xposition Yposition Zposition Yrotation Xrotation Zrotation
		JOINT LeftLeg
		{
			OFFSET 0.00 -42.00 0.00
			CHANNELS 6 Xposition Yposition Zposition Yrotation Xrotation Zrotation
			JOINT LeftFoot
			{
				OFFSET 0.00 -42.00 0.00
				CHANNELS 6 Xposition Yposition Zposition Yrotation Xrotation Zrotation
				End Site
				{
					OFFSET 0 -1.14 11.36
				}
			}
		}
	}
	JOINT Spine
	{
		OFFSET 0.00 10.46 0.00
		CHANNELS 6 Xposition Yposition Zposition Yrotation Xrotation Zrotation
		JOINT Spine1
		{
			OFFSET 0.00 9.75 0.00
			CHANNELS 6 Xposition Yposition Zposition Yrotation Xrotation Zrotation
			JOINT Spine2
			{
				OFFSET 0.00 10.15 0.00
				CHANNELS 6 Xposition Yposition Zposition Yrotation Xrotation Zrotation
				JOINT Spine3
				{
					OFFSET 0.00 9.75 0.00
					CHANNELS 6 Xposition Yposition Zposition Yrotation Xrotation Zrotation
			 		JOINT Neck
					{
						OFFSET 0.00 10.42 0.00
						CHANNELS 6 Xposition Yposition Zposition Yrotation Xrotation Zrotation
						JOINT Head
						{
							OFFSET 0.00 9.50 0.00
							CHANNELS 6 Xposition Yposition Zposition Yrotation Xrotation Zrotation
							End Site
							{
								OFFSET 0 16.00 0
							}
						}    
					} 
					JOINT RightShoulder
	 					{
						OFFSET -3.20 6.94 0.00
						CHANNELS 6 Xposition Yposition Zposition Yrotation Xrotation Zrotation
						JOINT RightArm
						{
							OFFSET -16.00 0.00 0.00
							CHANNELS 6 Xposition Yposition Zposition Yrotation Xrotation Zrotation
							JOINT RightForeArm
							{
								OFFSET -26.50 0.00 0.00
								CHANNELS 6 Xposition Yposition Zposition Yrotation Xrotation Zrotation
								JOINT RightHand
								{
									OFFSET -26.00 0.00 0.00
									CHANNELS 6 Xposition Yposition Zposition Yrotation Xrotation Zrotation
									End Site
									{
										OFFSET -17.50 0 0
									}
								}
							}
						}	
					}
					JOINT LeftShoulder
					{
						OFFSET 3.20 6.94 0.00
						CHANNELS 6 Xposition Yposition Zposition Yrotation Xrotation Zrotation
						JOINT LeftArm
						{
							OFFSET 16.00 0.00 0.00
							CHANNELS 6 Xposition Yposition Zposition Yrotation Xrotation Zrotation
							JOINT LeftForeArm
							{
								OFFSET 26.50 0.00 0.00
								CHANNELS 6 Xposition Yposition Zposition Yrotation Xrotation Zrotation
								JOINT LeftHand
								{
									OFFSET 26.00 0.00 0.00
									CHANNELS 6 Xposition Yposition Zposition Yrotation Xrotation Zrotation
									End Site
									{
										OFFSET 17.50 0 0
									}
								}
							}
						}
					}     			
				}
			}
		} 
	} 
}
MOTION
Frames: 16
Frame Time: 0.010
153.30 85.58 -5.03 99.02 -20.27 4.92 -9.93 -0.20 0.12 -12.65 24.37 -14.43 -0.74 -41.50 0.20 15.18 51.86 7.18 0.78 -45.52 -1.52 -4.61 8.01 7.88 9.87 -0.25 -0.97 -12.74 -15.87 -5.40 -0.11 -41.86 -2.76 10.56 50.73 2.58 -0.05 -42.31 -0.81 10.70 -14.33 5.63 0.28 10.47 -0.86 6.90 2.78 -0.76 0.40 9.83 -0.30 1.72 0.78 -0.22 0.42 10.16 0.11 2.83 1.38 -0.35 0.40 9.76 0.07 -0.89 -0.27 -0.32 -0.01 10.45 0.28 -0.90 -0.27 -0.32 -0.12 9.47 0.78 -16.03 -5.49 -5.10 -3.07 7.67 -0.38 3.99 4.16 -4.03 -17.19 1.82 -0.42 -25.70 -15.35 43.84 -24.54 3.52 0.95 71.29 -16.38 -29.77 -25.99 2.40 4.16 4.98 -4.44 -21.89 3.42 7.29 0.48 -0.78 11.30 2.12 17.35 0.93 -0.15 11.80 17.73 -68.99 25.84 -0.22 -0.24 -72.64 4.93 -3.79 26.01 -2.32 1.48 -10.94 2.31 6.99 
153.30 85.58 -5.03 99.02 -20.27 4.92 -9.93 -0.20 0.12 -12.65 24.37 -14.43 -0.74 -41.50 0.20 15.18 51.86 7.18 0.78 -45.52 -1.52 -4.61 8.01 7.88 9.87 -0.25 -0.97 -12.74 -15.87 -5.40 -0.11 -41.86 -2.76 10.56 50.73 2.58 -0.05 -42.31 -0.81 10.70 -14.33 5.63 0.20 10.47 -0.84 6.90 2.78 -0.76 0.25 9.83 -0.28 1.72 0.78 -0.22 0.35 10.16 0.09 2.83 1.38 -0.35 0.33 9.76 0.02 -0.89 -0.27 -0.32 -0.12 10.45 0.20 -0.90 -0.27 -0.32 -0.19 9.47 0.76 -16.03 -5.49 -5.10 -3.14 7.67 -0.42 3.99 4.16 -4.03 -17.19 1.82 -0.42 -25.70 -15.35 43.84 -24.54 3.52 0.95 71.29 -16.38 -29.77 -25.99 2.40 4.16 4.98 -4.44 -21.89 3.36 7.29 0.43 -0.78 11.30 2.12 17.35 0.93 -0.15 11.80 17.73 -68.99 25.84 -0.22 -0.24 -72.64 4.93 -3.79 26.01 -2.32 1.48 -10.94 2.31 6.99 
153.62 85.67 -5.08 99.02 -20.27 4.92 -9.95 -0.21 0.19 -12.64 24.37 -14.43 -0.71 -41.44 0.26 15.19 51.87 7.18 0.82 -45.50 -1.63 -4.61 8.02 7.88 9.87 -0.29 -1.04 -12.73 -15.86 -5.40 -0.17 -41.80 -2.89 10.55 50.72 2.57 -0.05 -42.32 -0.88 10.70 -14.33 5.63 0.16 10.47 -0.86 6.90 2.78 -0.76 0.14 9.84 -0.31 1.72 0.78 -0.22 0.31 10.16 0.06 2.83 1.38 -0.35 0.30 9.76 -0.02 -0.89 -0.27 -0.32 -0.20 10.45 0.10 -0.90 -0.27 -0.32 -0.24 9.47 0.75 -16.03 -5.49 -5.10 -3.17 7.70 -0.50 3.99 4.15 -4.03 -17.25 1.94 -0.47 -25.69 -15.35 43.82 -24.47 3.66 0.98 71.29 -16.38 -29.77 -25.96 2.44 4.28 4.99 -4.43 -21.89 3.32 7.31 0.41 -0.78 11.30 2.13 17.41 0.98 -0.14 11.79 17.74 -68.99 25.82 -0.21 -0.26 -72.65 4.92 -3.79 26.00 -2.42 1.53 -10.94 2.30 6.99 
154.19 85.89 -5.17 99.01 -20.27 4.91 -9.98 -0.24 0.36 -12.64 24.35 -14.42 -0.64 -41.32 0.39 15.21 51.90 7.20 0.96 -45.38 -1.78 -4.59 8.03 7.87 9.87 -0.39 -1.18 -12.71 -15.83 -5.40 -0.26 -41.66 -3.11 10.52 50.71 2.56 -0.04 -42.37 -0.99 10.71 -14.33 5.63 0.16 10.47 -0.86 6.90 2.79 -0.76 0.04 9.84 -0.36 1.72 0.78 -0.22 0.28 10.16 0.03 2.83 1.38 -0.35 0.28 9.76 -0.06 -0.89 -0.27 -0.32 -0.27 10.46 -0.02 -0.90 -0.27 -0.32 -0.30 9.47 0.74 -16.02 -5.49 -5.09 -3.19 7.77 -0.61 3.99 4.15 -4.05 -17.35 2.16 -0.58 -25.65 -15.34 43.77 -24.35 3.90 1.03 71.30 -16.39 -29.79 -25.92 2.47 4.48 4.99 -4.42 -21.88 3.29 7.34 0.40 -0.78 11.29 2.14 17.50 1.08 -0.12 11.77 17.77 -68.96 25.78 -0.20 -0.31 -72.69 4.92 -3.81 25.99 -2.62 1.60 -10.94 2.29 7.00 
155.28 86.28 -5.41 97.57 -20.87 4.56 -9.88 -0.20 0.35 -11.27 23.25 -13.93 -0.58 -41.50 0.34 17.12 54.94 9.16 0.85 -44.69 -1.39 -3.85 9.89 7.05 9.77 -0.26 -0.94 -9.83 -12.71 -5.41 -0.19 -41.83 -2.48 6.18 49.91 0.67 -0.04 -42.36 -0.77 12.22 -14.55 5.53 0.07 10.49 -0.74 6.80 3.33 -0.73 -0.02 9.84 -0.36 1.69 0.92 -0.22 0.21 10.17 0.00 2.78 1.64 -0.35 0.23 9.77 -0.12 -0.84 -0.24 -0.25 -0.32 10.47 -0.11 -0.85 -0.24 -0.25 -0.32 9.48 0.66 -15.15 -4.76 -4.06 -3.23 7.64 -0.61 4.26 3.35 -5.22 -17.14 1.74 -0.54 -23.64 -15.11 41.88 -24.89 3.32 0.84 71.55 -16.65 -31.04 -26.19 2.08 3.62 5.26 -4.07 -21.73 3.29 7.31 0.24 -0.59 10.62 3.59 17.27 0.87 -0.05 10.80 20.04 -68.38 25.91 -0.16 -0.20 -74.79 4.48 -4.40 26.08 -2.12 1.40 -11.01 1.68 7.09 
156.53 86.83 -5.81 97.33 -20.90 3.72 -9.83 -0.17 0.30 -10.84 21.39 -13.12 -0.59 -41.62 0.32 18.40 57.93 10.97 0.51 -44.40 -1.17 -1.28 8.13 5.87 9.66 -0.24 -0.74 -9.20 -10.94 -4.89 -0.28 -41.86 -2.08 6.00 49.39 1.19 -0.01 -42.36 -0.63 11.83 -13.81 5.61 0.03 10.49 -0.73 6.13 3.59 -0.61 -0.06 9.83 -0.38 1.52 0.98 -0.19 0.17 10.17 -0.02 2.50 1.72 -0.30 0.19 9.77 -0.17 -0.80 -0.21 -0.20 -0.40 10.48 -0.21 -0.81 -0.20 -0.20 -0.37 9.49 0.57 -14.60 -3.98 -3.24 -3.26 7.54 -0.61 4.12 2.74 -6.56 -17.00 1.43 -0.44 -21.44 -14.11 40.00 -25.30 2.92 0.66 72.05 -17.23 -32.21 -26.34 1.84 2.98 5.27 -3.71 -21.51 3.27 7.27 0.09 -0.59 9.94 4.90 17.08 0.70 -0.02 10.04 21.80 -67.94 25.97 -0.13 -0.15 -76.37 4.36 -5.25 26.13 -1.75 1.27 -11.19 1.46 7.11 
157.90 87.53 -6.39 97.99 -21.10 2.57 -9.80 -0.17 0.24 -11.05 19.52 -12.40 -0.48 -41.74 0.34 17.25 61.13 10.90 0.20 -44.19 -0.97 2.34 5.27 6.39 9.56 -0.29 -0.66 -10.75 -9.97 -4.30 -0.43 -41.86 -1.88 7.39 49.70 2.09 -0.02 -42.34 -0.51 11.49 -12.06 5.53 0.03 10.49 -0.72 5.14 4.08 -0.45 -0.07 9.81 -0.39 1.27 1.10 -0.14 0.15 10.17 -0.01 2.09 1.91 -0.23 0.17 9.78 -0.19 -0.79 -0.18 -0.16 -0.47 10.50 -0.26 -0.79 -0.17 -0.16 -0.41 9.50 0.52 -14.36 -3.34 -2.47 -3.28 7.47 -0.59 3.59 2.28 -7.65 -16.95 1.27 -0.32 -19.58 -12.99 38.17 -25.59 2.71 0.51 72.34 -17.27 -32.85 -26.38 1.78 2.52 4.90 -3.29 -20.95 3.25 7.26 -0.01 -0.79 9.14 5.92 16.93 0.60 -0.01 9.58 22.96 -67.30 25.99 -0.13 -0.13 -77.56 4.39 -6.38 26.18 -1.50 1.20 -11.39 1.75 6.74 
159.08 88.34 -7.03 98.92 -21.65 1.37 -9.77 -0.18 0.18 -11.69 17.85 -11.80 -0.31 -41.83 0.33 14.95 63.91 9.56 0.14 -43.86 -0.74 4.52 3.31 8.05 9.56 -0.31 -0.62 -12.66 -9.24 -4.18 -0.33 -41.93 -1.66 9.54 50.41 3.45 0.11 -42.32 -0.34 11.03 -9.19 5.46 0.03 10.50 -0.68 4.27 4.82 -0.26 -0.09 9.82 -0.43 1.06 1.28 -0.10 0.14 10.18 -0.01 1.74 2.20 -0.15 0.15 9.78 -0.21 -0.79 -0.15 -0.11 -0.53 10.50 -0.33 -0.80 -0.15 -0.11 -0.46 9.52 0.46 -14.44 -2.73 -1.68 -3.28 7.42 -0.63 3.05 2.52 -8.27 -16.89 1.17 -0.27 -18.99 -12.74 36.52 -25.83 2.48 0.39 72.02 -16.07 -32.57 -26.37 1.73 2.05 4.29 -2.85 -20.12 3.22 7.24 -0.09 -1.05 9.59 6.70 16.80 0.53 -0.00 9.33 22.45 -66.88 26.00 -0.11 -0.10 -78.48 4.28 -7.77 26.20 -1.26 1.08 -11.69 2.74 5.88 
160.09 89.23 -7.61 99.92 -22.27 0.42 -9.79 -0.17 0.16 -12.22 16.27 -11.22 -0.31 -41.85 0.31 13.42 65.71 9.41 0.08 -43.56 -0.66 4.15 1.77 8.97 9.54 -0.30 -0.40 -14.60 -8.48 -4.27 -0.18 -41.92 -1.34 11.72 50.52 4.78 0.22 -42.24 -0.34 10.52 -4.73 5.23 0.03 10.51 -0.67 3.44 5.78 -0.31 -0.11 9.84 -0.49 0.84 1.52 -0.11 0.12 10.18 -0.01 1.38 2.59 -0.17 0.14 9.78 -0.24 -0.79 -0.14 -0.05 -0.57 10.49 -0.38 -0.80 -0.14 -0.05 -0.48 9.53 0.42 -14.55 -2.34 -0.62 -3.28 7.36 -0.64 2.57 3.20 -8.29 -16.82 1.08 -0.21 -18.96 -12.82 34.78 -26.02 2.22 0.30 71.60 -14.39 -32.19 -26.35 1.63 1.62 3.72 -2.29 -19.42 3.20 7.21 -0.13 -0.93 9.68 7.33 16.72 0.61 -0.23 7.58 20.82 -67.28 26.03 -0.06 -0.36 -77.71 4.01 -8.16 26.22 -1.07 0.93 -11.95 3.97 4.66 
160.96 90.17 -8.06 100.84 -22.89 -0.28 -9.78 -0.13 0.11 -11.97 14.70 -10.58 -0.32 -41.88 0.28 11.17 66.91 9.28 0.04 -43.33 -0.62 2.73 0.04 8.61 9.41 -0.28 -0.35 -15.72 -8.54 -4.04 -0.18 -41.90 -1.18 12.24 51.27 5.00 0.23 -42.13 -0.37 10.92 0.16 5.34 0.04 10.52 -0.67 2.68 6.72 -0.47 -0.14 9.89 -0.58 0.65 1.75 -0.14 0.10 10.18 -0.02 1.06 2.96 -0.23 0.13 9.78 -0.26 -0.80 -0.13 0.01 -0.59 10.47 -0.44 -0.81 -0.12 0.01 -0.49 9.54 0.40 -14.72 -1.86 0.41 -3.26 7.33 -0.66 2.29 4.54 -7.95 -16.71 0.99 -0.18 -19.24 -12.89 33.00 -26.16 1.92 0.22 71.38 -12.54 -32.29 -26.33 1.49 1.24 3.17 -1.93 -18.96 3.18 7.18 -0.21 -0.99 9.81 7.48 16.60 0.57 -0.22 7.20 20.11 -66.96 26.09 -0.11 -0.33 -78.02 3.29 -8.86 26.22 -0.93 0.77 -12.06 4.89 3.52 
161.72 91.08 -8.33 101.42 -23.43 -0.89 -9.71 -0.09 0.05 -10.96 13.09 -9.73 -0.31 -41.90 0.21 8.07 67.47 8.60 0.02 -43.13 -0.62 1.09 -1.76 7.66 9.30 -0.27 -0.45 -15.99 -9.30 -3.42 -0.22 -41.88 -1.16 12.41 52.60 5.11 0.19 -41.94 -0.38 11.45 4.83 6.27 0.03 10.53 -0.68 2.05 7.71 -0.58 -0.17 9.95 -0.67 0.50 1.99 -0.17 0.08 10.18 -0.04 0.80 3.35 -0.28 0.12 9.78 -0.30 -0.81 -0.10 0.07 -0.60 10.45 -0.48 -0.81 -0.10 0.07 -0.48 9.55 0.38 -14.84 -1.25 1.37 -3.25 7.29 -0.67 2.30 5.98 -7.49 -16.62 0.92 -0.17 -19.81 -12.90 31.74 -26.25 1.64 0.16 71.54 -10.57 -32.85 -26.30 1.31 0.92 2.68 -1.99 -18.67 3.17 7.15 -0.27 -0.94 10.06 7.20 16.54 0.55 -0.20 6.59 19.27 -67.16 26.14 -0.10 -0.29 -77.92 2.74 -8.89 26.21 -0.80 0.65 -12.03 5.10 3.01 
162.38 91.91 -8.51 101.60 -23.78 -1.52 -9.63 -0.06 0.01 -9.64 11.39 -8.61 -0.29 -41.89 0.17 4.16 67.27 6.84 0.03 -42.92 -0.64 -0.35 -3.39 6.81 9.29 -0.25 -0.47 -15.36 -10.12 -2.78 -0.14 -41.93 -1.06 12.47 53.78 5.44 0.14 -41.76 -0.36 11.73 7.92 7.75 0.02 10.54 -0.67 1.55 8.59 -0.58 -0.19 10.00 -0.72 0.37 2.20 -0.17 0.05 10.19 -0.05 0.59 3.69 -0.27 0.10 9.79 -0.32 -0.81 -0.05 0.11 -0.61 10.43 -0.49 -0.81 -0.05 0.11 -0.47 9.56 0.35 -14.84 -0.29 2.02 -3.24 7.26 -0.68 2.63 7.79 -7.06 -16.52 0.83 -0.20 -20.69 -13.29 31.17 -26.29 1.38 0.12 72.16 -9.08 -33.53 -26.25 1.11 0.69 2.32 -2.30 -18.53 3.16 7.14 -0.32 -0.89 10.52 6.54 16.51 0.55 -0.20 6.04 18.34 -67.79 26.17 -0.08 -0.25 -77.52 2.46 -8.26 26.20 -0.75 0.57 -11.77 4.40 3.25 
162.96 92.64 -8.65 101.36 -23.81 -2.23 -9.55 -0.06 0.01 -8.24 9.48 -7.22 -0.24 -41.89 0.15 0.03 66.39 4.41 0.07 -42.71 -0.65 -1.31 -4.90 6.22 9.31 -0.21 -0.50 -13.98 -11.10 -1.91 -0.04 -42.05 -0.97 12.03 54.56 5.55 0.11 -41.79 -0.34 11.90 7.88 8.04 -0.00 10.54 -0.68 1.22 9.35 -0.42 -0.20 10.02 -0.73 0.29 2.38 -0.12 0.03 10.19 -0.05 0.46 3.98 -0.20 0.07 9.78 -0.32 -0.81 0.00 0.13 -0.62 10.42 -0.46 -0.82 0.01 0.13 -0.48 9.57 0.35 -14.84 0.66 2.31 -3.25 7.21 -0.67 3.06 8.66 -6.91 -16.45 0.75 -0.19 -21.86 -13.27 31.45 -26.30 1.19 0.11 73.58 -7.98 -33.86 -26.20 0.94 0.55 2.02 -2.62 -18.45 3.15 7.13 -0.32 -0.73 11.18 5.86 16.49 0.52 -0.16 5.25 17.18 -68.91 26.20 -0.06 -0.20 -76.84 2.24 -7.12 26.17 -0.73 0.51 -11.30 3.13 4.16 
163.49 93.29 -8.78 100.81 -23.65 -2.95 -9.48 -0.07 0.03 -6.86 7.48 -5.73 -0.20 -41.91 0.16 -3.44 64.94 2.33 0.12 -42.53 -0.63 -1.69 -6.45 5.72 9.30 -0.14 -0.48 -12.20 -11.82 -0.89 -0.03 -42.11 -0.88 11.53 53.97 5.73 0.12 -41.76 -0.40 10.91 7.43 7.60 -0.03 10.54 -0.68 1.01 10.06 -0.23 -0.20 10.03 -0.72 0.24 2.56 -0.07 0.02 10.19 -0.05 0.38 4.25 -0.12 0.05 9.78 -0.33 -0.81 0.05 0.15 -0.62 10.42 -0.40 -0.82 0.06 0.15 -0.48 9.57 0.40 -14.86 1.50 2.50 -3.25 7.16 -0.64 3.40 8.67 -6.92 -16.37 0.65 -0.19 -22.66 -12.82 32.22 -26.31 1.03 0.07 75.38 -7.37 -33.96 -26.15 0.80 0.46 1.67 -2.93 -18.33 3.16 7.11 -0.31 -0.61 11.64 5.29 16.46 0.47 -0.14 4.26 16.06 -70.35 26.22 -0.08 -0.16 -75.79 1.63 -5.49 26.15 -0.74 0.44 -10.73 1.92 5.35 
164.00 93.87 -8.92 100.27 -23.52 -3.61 -9.40 -0.08 0.04 -5.71 5.58 -4.37 -0.16 -41.92 0.15 -6.08 62.90 0.91 0.13 -42.37 -0.63 -1.35 -7.99 5.09 9.30 -0.07 -0.37 -11.03 -12.02 -0.07 0.11 -42.11 -0.74 11.74 51.90 5.81 0.23 -41.73 -0.49 9.35 6.64 7.15 -0.04 10.54 -0.67 0.70 10.78 -0.20 -0.18 10.02 -0.70 0.17 2.73 -0.06 0.01 10.19 -0.05 0.26 4.52 -0.10 0.04 9.78 -0.33 -0.81 0.12 0.17 -0.60 10.43 -0.33 -0.82 0.12 0.17 -0.47 9.58 0.43 -14.83 2.67 2.81 -3.25 7.12 -0.62 3.77 8.24 -6.65 -16.30 0.57 -0.19 -23.38 -12.32 33.29 -26.31 0.90 0.03 77.35 -6.70 -33.73 -26.10 0.68 0.40 1.26 -3.30 -18.11 3.16 7.10 -0.30 -0.55 11.81 4.87 16.43 0.41 -0.13 3.20 15.04 -71.90 26.25 -0.07 -0.14 -74.34 1.26 -3.83 26.13 -0.71 0.39 -10.20 0.33 6.87 
164.51 94.37 -9.09 99.95 -23.37 -4.20 -9.35 -0.09 0.02 -4.85 3.79 -3.14 -0.13 -41.95 0.13 -8.48 60.44 -0.27 0.12 -42.25 -0.59 -0.19 -9.57 4.47 9.33 -0.03 -0.29 -10.27 -12.18 0.44 0.12 -42.07 -0.68 10.72 49.07 5.35 0.15 -41.74 -0.56 8.37 5.92 6.06 -0.05 10.54 -0.65 0.26 11.43 -0.32 -0.17 10.01 -0.67 0.06 2.88 -0.08 0.01 10.19 -0.04 0.08 4.75 -0.14 0.03 9.78 -0.33 -0.82 0.21 0.20 -0.57 10.43 -0.25 -0.83 0.21 0.21 -0.44 9.59 0.44 -14.81 4.16 3.25 -3.24 7.10 -0.59 3.83 8.13 -6.17 -16.26 0.53 -0.18 -23.80 -12.09 34.78 -26.31 0.80 0.02 79.31 -5.84 -33.40 -26.06 0.58 0.35 0.82 -3.66 -17.81 3.18 7.07 -0.30 -0.60 11.94 4.56 16.39 0.35 -0.14 2.10 13.94 -73.51 26.27 -0.05 -0.13 -72.56 0.71 -2.10 26.12 -0.64 0.35 -9.74 -0.96 8.00 
